<svg version="1.1" id="Layer_1" xmlns="http://www.w3.org/2000/svg" xmlns:xlink="http://www.w3.org/1999/xlink" x="0px" y="0px"
	 width="100%" viewBox="0 0 512 512" enable-background="new 0 0 512 512" xml:space="preserve">
<path fill="#000000" opacity="1.000000" stroke="none" 
	d="
M1.000000,257.000000 
	C1.000000,171.706726 1.000000,86.413445 1.000000,1.060081 
	C171.546494,1.060081 342.093018,1.060081 513.000000,1.060081 
	C513.000000,54.354225 513.000000,107.709267 512.533325,161.578735 
	C501.797821,162.093155 491.528900,162.093155 480.728271,162.093155 
	C480.728271,194.066681 480.728271,225.311996 480.728271,256.657166 
	C469.775574,256.657166 459.371124,256.657166 448.556488,256.657166 
	C448.556488,254.339508 448.556488,252.359924 448.556488,250.380325 
	C448.556427,234.881668 448.556427,219.382996 448.556305,203.884338 
	C448.556213,194.328125 448.556122,194.328094 439.136261,194.327988 
	C432.216736,194.327911 425.297211,194.327957 417.963440,194.327957 
	C417.963440,215.674896 417.963440,236.105347 417.963440,256.642181 
	C406.460388,256.642181 395.411774,256.642181 383.811462,256.642181 
	C383.811462,245.891632 383.811462,235.485397 383.811462,225.248383 
	C373.519531,225.248383 363.788513,225.248383 353.628296,225.248383 
	C353.628296,235.953217 353.628296,246.227966 353.628296,256.644379 
	C342.122955,256.644379 331.066193,256.644379 319.443298,256.644379 
	C319.443298,225.040039 319.443298,193.784119 319.443298,162.471039 
	C309.130554,162.471039 299.391785,162.471039 289.106506,162.471039 
	C289.106506,194.051666 289.106506,225.287247 289.106506,256.676453 
	C278.162354,256.676453 267.773041,256.676453 256.846497,256.676453 
	C256.846497,203.628815 256.846497,150.898849 256.846497,98.231705 
	C245.911942,98.231705 235.522369,98.231705 224.712616,98.231705 
	C224.712616,151.247452 224.712616,203.845383 224.712616,256.700073 
	C213.882599,256.700073 203.486008,256.700073 192.471344,256.700073 
	C192.471344,182.171814 192.471344,107.937233 192.471344,33.502739 
	C182.119873,33.502739 172.389145,33.502739 162.108093,33.502739 
	C162.108093,70.940964 162.108093,108.057808 162.108093,145.174652 
	C162.108093,182.283783 162.108093,219.392914 162.108093,256.657166 
	C150.491684,256.657166 139.442902,256.657166 127.843842,256.657166 
	C127.843842,203.592484 127.843842,150.864746 127.843842,98.229721 
	C117.556648,98.229721 107.827309,98.229721 97.503967,98.229721 
	C97.503967,151.358231 97.503967,204.071777 97.503967,256.267151 
	C86.280563,256.267151 75.673012,256.267151 63.905174,256.267151 
	C63.905174,224.475998 63.905174,193.442612 63.905174,162.537460 
	C52.989948,162.537460 43.253551,162.537460 32.972893,162.537460 
	C32.972893,194.182892 32.972893,225.415207 32.972893,257.000000 
	C21.946413,257.000000 11.473207,257.000000 1.000000,257.000000 
z"/>
<path fill="#000000" opacity="1.000000" stroke="none" 
	d="
M513.000000,416.000000 
	C513.000000,448.316345 513.000000,480.632690 513.000000,512.974487 
	C342.440033,512.974487 171.880035,512.974487 1.000000,512.974487 
	C1.000000,438.646088 1.000000,364.291687 1.463965,289.539917 
	C12.199388,289.142487 22.470846,289.142487 33.294174,289.142487 
	C33.294174,321.152710 33.294174,352.397614 33.294174,383.739594 
	C43.609734,383.739594 53.357471,383.739594 64.098862,383.739594 
	C64.098862,352.527679 64.098862,321.604156 64.098862,289.895386 
	C75.799606,289.895386 86.518372,289.895386 97.904488,289.895386 
	C97.904488,331.702454 97.904488,373.750763 97.904488,415.787842 
	C108.278969,415.787842 117.997681,415.787842 128.203506,415.787842 
	C128.203506,373.481018 128.203506,331.570831 128.203506,289.625641 
	C139.739304,289.625641 150.772354,289.625641 162.204437,289.625641 
	C162.204437,342.674103 162.204437,395.285492 162.204437,448.102234 
	C172.477280,448.102234 182.335464,448.102234 192.691437,448.102234 
	C192.691437,395.035583 192.691437,342.432343 192.691437,289.547791 
	C203.573792,289.547791 213.951706,289.547791 224.938934,289.547791 
	C224.938934,342.625061 224.938934,395.345459 224.938934,448.156525 
	C235.939835,448.156525 246.325729,448.156525 257.166016,448.156525 
	C257.166016,394.987976 257.166016,342.229126 257.166016,289.973450 
	C268.361816,289.973450 279.077362,289.973450 289.437012,289.973450 
	C289.437012,321.763550 289.437012,352.674744 289.437012,383.724182 
	C299.513763,383.724182 309.579224,383.724182 319.414246,383.724182 
	C319.414246,352.497711 319.414246,321.587006 319.414246,289.884033 
	C330.665527,289.884033 342.019409,289.884033 353.903809,289.884033 
	C353.903809,299.573914 353.903809,309.335632 353.903809,319.325439 
	C364.153870,319.325439 373.888245,319.325439 384.123230,319.325439 
	C384.123230,309.231812 384.123230,299.474060 384.123230,289.578064 
	C395.676910,289.578064 406.724609,289.578064 418.313965,289.578064 
	C418.313965,321.212830 418.313965,352.459869 418.313965,383.695221 
	C428.603210,383.695221 438.341919,383.695221 448.555237,383.695221 
	C448.555237,381.384583 448.555267,379.413086 448.555267,377.441559 
	C448.555298,352.275787 448.555328,327.110046 448.555359,301.944275 
	C448.555359,289.187012 448.555359,289.187012 461.285217,289.187012 
	C467.702637,289.187012 474.120026,289.187012 481.048645,289.187012 
	C481.048645,331.988464 481.048645,373.897034 481.048645,415.913025 
	C482.389069,416.032227 483.201172,416.170258 484.012604,416.166626 
	C493.675110,416.123322 503.337555,416.058868 513.000000,416.000000 
z"/>
<path fill="#79AE5E" opacity="1.000000" stroke="none" 
	d="
M513.000000,415.531311 
	C503.337555,416.058868 493.675110,416.123322 484.012604,416.166626 
	C483.201172,416.170258 482.389069,416.032227 481.048645,415.913025 
	C481.048645,373.897034 481.048645,331.988464 481.048645,289.187012 
	C474.120026,289.187012 467.702637,289.187012 461.285217,289.187012 
	C448.555359,289.187012 448.555359,289.187012 448.555359,301.944275 
	C448.555328,327.110046 448.555298,352.275787 448.555267,377.441559 
	C448.555267,379.413086 448.555237,381.384583 448.555237,383.695221 
	C438.341919,383.695221 428.603210,383.695221 418.313965,383.695221 
	C418.313965,352.459869 418.313965,321.212830 418.313965,289.578064 
	C406.724609,289.578064 395.676910,289.578064 384.123230,289.578064 
	C384.123230,299.474060 384.123230,309.231812 384.123230,319.325439 
	C373.888245,319.325439 364.153870,319.325439 353.903809,319.325439 
	C353.903809,309.335632 353.903809,299.573914 353.903809,289.884033 
	C342.019409,289.884033 330.665527,289.884033 319.414246,289.884033 
	C319.414246,321.587006 319.414246,352.497711 319.414246,383.724182 
	C309.579224,383.724182 299.513763,383.724182 289.437012,383.724182 
	C289.437012,352.674744 289.437012,321.763550 289.437012,289.973450 
	C279.077362,289.973450 268.361816,289.973450 257.166016,289.973450 
	C257.166016,342.229126 257.166016,394.987976 257.166016,448.156525 
	C246.325729,448.156525 235.939835,448.156525 224.938934,448.156525 
	C224.938934,395.345459 224.938934,342.625061 224.938934,289.547791 
	C213.951706,289.547791 203.573792,289.547791 192.691437,289.547791 
	C192.691437,342.432343 192.691437,395.035583 192.691437,448.102234 
	C182.335464,448.102234 172.477280,448.102234 162.204437,448.102234 
	C162.204437,395.285492 162.204437,342.674103 162.204437,289.625641 
	C150.772354,289.625641 139.739304,289.625641 128.203506,289.625641 
	C128.203506,331.570831 128.203506,373.481018 128.203506,415.787842 
	C117.997681,415.787842 108.278969,415.787842 97.904488,415.787842 
	C97.904488,373.750763 97.904488,331.702454 97.904488,289.895386 
	C86.518372,289.895386 75.799606,289.895386 64.098862,289.895386 
	C64.098862,321.604156 64.098862,352.527679 64.098862,383.739594 
	C53.357471,383.739594 43.609734,383.739594 33.294174,383.739594 
	C33.294174,352.397614 33.294174,321.152710 33.294174,289.142487 
	C22.470846,289.142487 12.199388,289.142487 1.463965,289.071228 
	C1.000000,278.645782 1.000000,268.291534 1.000000,257.468658 
	C11.473207,257.000000 21.946413,257.000000 32.972893,257.000000 
	C32.972893,225.415207 32.972893,194.182892 32.972893,162.537460 
	C43.253551,162.537460 52.989948,162.537460 63.905174,162.537460 
	C63.905174,193.442612 63.905174,224.475998 63.905174,256.267151 
	C75.673012,256.267151 86.280563,256.267151 97.503967,256.267151 
	C97.503967,204.071777 97.503967,151.358231 97.503967,98.229721 
	C107.827309,98.229721 117.556648,98.229721 127.843842,98.229721 
	C127.843842,150.864746 127.843842,203.592484 127.843842,256.657166 
	C139.442902,256.657166 150.491684,256.657166 162.108093,256.657166 
	C162.108093,219.392914 162.108093,182.283783 162.108093,145.174652 
	C162.108093,108.057808 162.108093,70.940964 162.108093,33.502739 
	C172.389145,33.502739 182.119873,33.502739 192.471344,33.502739 
	C192.471344,107.937233 192.471344,182.171814 192.471344,256.700073 
	C203.486008,256.700073 213.882599,256.700073 224.712616,256.700073 
	C224.712616,203.845383 224.712616,151.247452 224.712616,98.231705 
	C235.522369,98.231705 245.911942,98.231705 256.846497,98.231705 
	C256.846497,150.898849 256.846497,203.628815 256.846497,256.676453 
	C267.773041,256.676453 278.162354,256.676453 289.106506,256.676453 
	C289.106506,225.287247 289.106506,194.051666 289.106506,162.471039 
	C299.391785,162.471039 309.130554,162.471039 319.443298,162.471039 
	C319.443298,193.784119 319.443298,225.040039 319.443298,256.644379 
	C331.066193,256.644379 342.122955,256.644379 353.628296,256.644379 
	C353.628296,246.227966 353.628296,235.953217 353.628296,225.248383 
	C363.788513,225.248383 373.519531,225.248383 383.811462,225.248383 
	C383.811462,235.485397 383.811462,245.891632 383.811462,256.642181 
	C395.411774,256.642181 406.460388,256.642181 417.963440,256.642181 
	C417.963440,236.105347 417.963440,215.674896 417.963440,194.327957 
	C425.297211,194.327957 432.216736,194.327911 439.136261,194.327988 
	C448.556122,194.328094 448.556213,194.328125 448.556305,203.884338 
	C448.556427,219.382996 448.556427,234.881668 448.556488,250.380325 
	C448.556488,252.359924 448.556488,254.339508 448.556488,256.657166 
	C459.371124,256.657166 469.775574,256.657166 480.728271,256.657166 
	C480.728271,225.311996 480.728271,194.066681 480.728271,162.093155 
	C491.528900,162.093155 501.797821,162.093155 512.533325,162.046570 
	C513.000000,246.354233 513.000000,330.708466 513.000000,415.531311 
z"/>
</svg>